<?xml version="1.0" encoding="iso-8859-1"?>
<!-- Uploaded to: SVG Repo, www.svgrepo.com, Generator: SVG Repo Mixer Tools -->
<svg version="1.1" id="Layer_1" xmlns="http://www.w3.org/2000/svg" xmlns:xlink="http://www.w3.org/1999/xlink" 
	 viewBox="0 0 512 512" xml:space="preserve">
<rect x="140.392" y="33.113" style="fill:#FF9ECA;" width="222.883" height="222.883"/>
<rect x="10.199" y="256" style="fill:#FFF6CC;" width="222.883" height="222.883"/>
<rect x="278.918" y="256" style="fill:#FFE97C;" width="222.883" height="222.883"/>
<g>
	<path style="fill:#4D1E1E;" d="M501.801,245.801H373.478V33.113c0-5.632-4.567-10.199-10.199-10.199H140.39
		c-5.633,0-10.199,4.567-10.199,10.199v212.688H10.199C4.566,245.801,0,250.368,0,256v222.887c0,5.632,4.566,10.199,10.199,10.199
		h222.887c5.633,0,10.199-4.567,10.199-10.199V266.199h25.429v212.688c0,5.632,4.567,10.199,10.199,10.199h222.887
		c5.632,0,10.199-4.567,10.199-10.199V256C512,250.368,507.433,245.801,501.801,245.801z M150.589,245.801V43.312h202.489v202.489
		H150.589z M222.887,266.199v202.489H20.398V266.199H222.887z M491.602,266.199v202.489H289.113V266.199H491.602z"/>
	<path style="fill:#4D1E1E;" d="M271.374,174.475l5.794,20.278c0.762,2.897,3.355,3.964,6.708,3.964
		c5.336,0,12.503-3.507,12.503-8.233c0-0.457-0.152-0.915-0.305-1.525l-29.428-95.902c-1.372-4.573-7.013-6.709-12.807-6.709
		c-5.641,0-11.283,2.136-12.655,6.709l-29.427,95.902c-0.152,0.61-0.305,1.22-0.305,1.525c0,4.878,7.166,8.233,12.502,8.233
		c3.355,0,5.946-1.068,6.709-3.964l5.794-20.278H271.374z M253.841,112.116l13.265,46.808h-26.53L253.841,112.116z"/>
	<path style="fill:#4D1E1E;" d="M97.679,312.233c-4.421,0-8.691,2.135-8.691,6.251v99.105c0,3.203,3.355,6.098,8.691,6.098h32.323
		c17.23,0,30.494-8.538,30.494-32.323v-3.202c0-15.247-6.404-21.193-15.704-24.852c8.081-3.506,12.96-11.74,12.96-24.242
		c0-21.651-14.789-26.835-30.647-26.835H97.679V312.233z M140.676,389.687c0,11.587-5.488,16.619-14.789,16.619h-17.228v-35.22
		h17.228c9.301,0,14.789,4.269,14.789,16.162V389.687z M137.931,342.421c0,7.776-3.964,13.112-12.197,13.112h-17.077v-25.919h16.924
		C133.357,329.615,137.931,334.493,137.931,342.421z"/>
	<path style="fill:#4D1E1E;" d="M352.344,347.148v42.539c0,25.462,15.857,34.914,35.068,34.914c21.346,0,36.441-11.74,36.441-30.189
		c0-7.776-3.203-9.758-10.063-9.758c-5.184,0-9.454,1.525-9.758,6.251c-0.458,6.403-1.678,16.315-15.552,16.315
		c-10.52,0-16.315-5.641-16.315-17.533v-42.539c0-11.892,5.794-17.533,16.009-17.533c14.485,0,15.552,10.367,15.858,15.095
		c0.152,4.573,4.269,6.251,9.911,6.251c6.708,0,9.911-1.83,9.911-9.758c0-17.686-15.095-28.969-36.288-28.969
		C368.352,312.233,352.344,321.686,352.344,347.148z"/>
	<path style="fill:#4D1E1E;" d="M43.528,381.199c-5.633,0-10.199,4.567-10.199,10.199V446.6c0,5.632,4.566,10.199,10.199,10.199
		s10.199-4.567,10.199-10.199v-55.201C53.727,385.765,49.161,381.199,43.528,381.199z"/>
	<path style="fill:#4D1E1E;" d="M43.528,341.621c-5.633,0-10.199,4.567-10.199,10.199v5.858c0,5.632,4.566,10.199,10.199,10.199
		s10.199-4.567,10.199-10.199v-5.858C53.727,346.189,49.161,341.621,43.528,341.621z"/>
</g>
</svg>