<?xml version="1.0" encoding="iso-8859-1"?>
<!-- Uploaded to: SVG Repo, www.svgrepo.com, Generator: SVG Repo Mixer Tools -->
<svg version="1.1" id="Layer_1" xmlns="http://www.w3.org/2000/svg" xmlns:xlink="http://www.w3.org/1999/xlink" 
	 viewBox="0 0 512.002 512.002" xml:space="preserve">
<rect x="27.047" y="123.075" style="fill:#FF9ECA;" width="150.591" height="150.336"/>
<polygon style="fill:#FFE97C;" points="10.201,123.074 102.341,31.155 194.481,123.074 "/>
<circle style="fill:#FFF6CC;" cx="102.341" cy="198.11" r="42"/>
<rect x="334.373" y="123.075" style="fill:#FF9ECA;" width="150.591" height="150.336"/>
<polygon style="fill:#FFE97C;" points="317.524,123.074 409.663,31.155 501.803,123.074 "/>
<circle style="fill:#FFF6CC;" cx="409.663" cy="198.11" r="42"/>
<g>
	<path style="fill:#4D1E1E;" d="M154.541,198.111c0-28.783-23.417-52.2-52.201-52.2s-52.2,23.416-52.2,52.2s23.416,52.2,52.2,52.2
		S154.541,226.894,154.541,198.111z M70.54,198.111c0-17.535,14.266-31.801,31.801-31.801s31.802,14.266,31.802,31.801
		s-14.266,31.801-31.802,31.801C84.806,229.912,70.54,215.647,70.54,198.111z"/>
	<path style="fill:#4D1E1E;" d="M495.157,133.273h6.646c4.128,0,7.847-2.488,9.425-6.302c1.577-3.815,0.701-8.203-2.222-11.118
		l-92.14-91.918c-3.98-3.972-10.427-3.972-14.406,0l-92.141,91.918c-2.922,2.915-3.799,7.304-2.222,11.118
		c1.578,3.815,5.297,6.302,9.425,6.302h6.648v83.399c-0.018,0.016-0.039,0.031-0.057,0.048c-1.567,0.98-14.758,8.072-68.111,8.072
		c-53.3,0-66.592-7.143-68.168-8.127v-83.392h6.648c4.128,0,7.847-2.488,9.425-6.302c1.577-3.815,0.701-8.203-2.222-11.118
		l-92.141-91.918c-3.98-3.972-10.427-3.972-14.406,0l-92.14,91.918c-2.922,2.915-3.799,7.304-2.222,11.118
		c1.578,3.815,5.297,6.302,9.425,6.302h6.647v337.375h-3.63c-5.632,0-10.199,4.566-10.199,10.199
		c0,5.633,4.567,10.199,10.199,10.199h27.658c5.632,0,10.199-4.566,10.199-10.199c0-5.633-4.567-10.199-10.199-10.199h-3.631
		V283.604h27.749v197.243c0,5.633,4.567,10.199,10.199,10.199c5.632,0,10.199-4.566,10.199-10.199v-37.948h33.895v37.948
		c0,5.633,4.567,10.199,10.199,10.199s10.199-4.566,10.199-10.199V283.604h27.748v187.044h-3.63
		c-5.632,0-10.199,4.566-10.199,10.199c0,5.633,4.567,10.199,10.199,10.199h27.658c5.632,0,10.199-4.566,10.199-10.199
		c0-5.633-4.567-10.199-10.199-10.199h-3.631V286.094c11.766,3.543,32.313,6.73,68.168,6.73c35.628,0,56.245-3.024,68.168-6.613
		v184.437h-3.631c-5.632,0-10.199,4.566-10.199,10.199c0,5.633,4.567,10.199,10.199,10.199h27.658
		c5.632,0,10.199-4.566,10.199-10.199c0-5.633-4.567-10.199-10.199-10.199h-3.63V283.604h27.748v197.243
		c0,5.633,4.567,10.199,10.199,10.199c5.632,0,10.199-4.566,10.199-10.199v-37.948h33.895v37.948
		c0,5.633,4.567,10.199,10.199,10.199c5.632,0,10.199-4.566,10.199-10.199V283.604h27.749v132.524
		c0,5.633,4.567,10.199,10.199,10.199c5.632,0,10.199-4.566,10.199-10.199V133.273H495.157z M409.663,45.561l67.474,67.313H342.188
		L409.663,45.561z M245.803,272.332c-7.382-0.138-13.868-0.423-19.554-0.808v-27.211c5.861,0.38,12.356,0.652,19.554,0.783V272.332z
		 M266.201,245.1c7.189-0.127,13.687-0.388,19.554-0.758v27.189c-5.684,0.381-12.17,0.664-19.554,0.802V245.1z M205.85,242.252
		v27.056c-12.718-2.057-17.148-4.468-18.017-5.011v-25.84C192.394,239.832,198.272,241.152,205.85,242.252z M102.341,45.561
		l67.475,67.313H34.867L102.341,45.561z M37.246,133.273h130.189v129.934H37.246V133.273z M85.394,362.996h33.895v19.553H85.394
		V362.996z M119.289,342.597H85.394v-19.553h33.895V342.597z M85.394,422.501v-19.554h33.895v19.554H85.394z M119.289,302.645
		H85.394v-19.041h33.895V302.645z M306.153,269.332v-27c7.536-1.074,13.423-2.372,18.017-3.755v25.73
		c-0.018,0.016-0.039,0.031-0.057,0.048C323.25,264.893,318.854,267.289,306.153,269.332z M392.715,362.996h33.895v19.553h-33.895
		V362.996z M426.611,342.597h-33.895v-19.553h33.895V342.597z M392.715,422.501v-19.554h33.895v19.554H392.715z M426.611,302.645
		h-33.895v-19.041h33.895V302.645z M474.759,263.206h-130.19V133.273h130.189v129.933H474.759z"/>
	<path style="fill:#4D1E1E;" d="M409.663,250.311c28.783,0,52.2-23.416,52.2-52.2s-23.416-52.2-52.2-52.2
		s-52.201,23.416-52.201,52.2S380.881,250.311,409.663,250.311z M409.663,166.31c17.534,0,31.801,14.266,31.801,31.801
		s-14.266,31.801-31.801,31.801s-31.802-14.266-31.802-31.801S392.128,166.31,409.663,166.31z"/>
	<path style="fill:#4D1E1E;" d="M495.157,450.806v-4.08c0-5.633-4.567-10.199-10.199-10.199c-5.632,0-10.199,4.566-10.199,10.199
		v4.08c0,5.633,4.567,10.199,10.199,10.199C490.59,461.005,495.157,456.439,495.157,450.806z"/>
	<path style="fill:#4D1E1E;" d="M498.786,470.648h-27.658c-5.632,0-10.199,4.566-10.199,10.199c0,5.633,4.567,10.199,10.199,10.199
		h27.658c5.632,0,10.199-4.566,10.199-10.199C508.985,475.214,504.419,470.648,498.786,470.648z"/>
</g>
</svg>