<?xml version="1.0" encoding="iso-8859-1"?>
<!-- Uploaded to: SVG Repo, www.svgrepo.com, Generator: SVG Repo Mixer Tools -->
<svg height="800px" width="800px" version="1.1" id="Layer_1" xmlns="http://www.w3.org/2000/svg" xmlns:xlink="http://www.w3.org/1999/xlink" 
	 viewBox="0 0 512 512" xml:space="preserve">
<path style="fill:#FF9ECA;" d="M25.709,88.876v45.386h158.542c54.112,36.638,86.973,57.902,120.263,114.136l4.072,6.878
	c39.59,66.875,84.687,130.331,134.824,189.71l24.761,29.326c3.269,3.87,8.076,6.104,13.143,6.104l0,0
	c14.516,0,26.433-19.375,17.234-30.604l-38.818-45.079c-41.366-50.497-78.676-109.664-112.589-165.44l-15.134-24.891
	c-36.467-59.977-103.675-99.648-140.245-123.966l-4.279-1.559C187.485,88.876,25.709,88.876,25.709,88.876z"/>
<g>
	<path style="fill:#4D1E1E;" d="M147.883,405.405h-6.119c-5.632,0-10.199,4.567-10.199,10.199s4.567,10.199,10.199,10.199h6.119
		c5.632,0,10.199-4.567,10.199-10.199S153.514,405.405,147.883,405.405z"/>
	<path style="fill:#4D1E1E;" d="M195.366,80.58v-3.563c0-29.637-24.119-55.632-51.615-55.632H67.125
		c-27.496,0-51.615,25.996-51.615,55.632v393.2h-5.312C4.567,470.217,0,474.784,0,480.416s4.567,10.199,10.199,10.199H41.22
		c5.632,0,10.199-4.567,10.199-10.199s-4.567-10.199-10.199-10.199h-5.313v-44.415h69.14c5.632,0,10.199-4.567,10.199-10.199
		s-4.567-10.199-10.199-10.199h-69.14v-36.106h137.378v100.918h-5.313c-5.632,0-10.199,4.567-10.199,10.199
		s4.567,10.199,10.199,10.199h31.022c5.632,0,10.199-4.567,10.199-10.199s-4.567-10.199-10.199-10.199h-5.312V152.972
		c16.369,11.13,30.578,21.068,43.431,31.596v295.295c0,5.632,4.567,10.199,10.199,10.199c5.632,0,10.199-4.567,10.199-10.199
		v-276.79c13.524,13.709,25.838,29.592,38.227,50.52l4.071,6.88c18.155,30.667,37.559,60.726,58.066,90.025v128.257
		c0,5.632,4.567,10.199,10.199,10.199s10.199-4.567,10.199-10.199v-99.867c18.342,24.876,37.474,49.145,57.346,72.678l24.762,29.327
		c5.218,6.179,12.849,9.723,20.934,9.723c11.25,0,22.372-7.521,27.672-18.715c4.78-10.095,3.828-20.768-2.548-28.552
		c-0.054-0.064-0.107-0.129-0.162-0.192l-38.736-44.983c-40.477-49.428-77.599-108.118-111.683-164.179l-15.134-24.891
		c-33.923-55.791-92.467-93.963-131.208-119.22L195.366,80.58z M35.908,77.017c0-18.44,14.88-35.235,31.218-35.235h76.625
		c16.338,0,31.217,16.794,31.217,35.235v1.661H35.908V77.017z M173.286,235.895H35.908v-36.106h137.378V235.895z M35.908,256.292
		h137.378v36.105H35.908C35.908,292.397,35.908,256.292,35.908,256.292z M173.286,179.392H35.908v-34.93h137.378V179.392z
		 M35.908,348.902v-36.106h137.378v36.106H35.908z M187.136,99.339c3.498,2.318,7.262,5.036,11.24,7.63
		c37.195,24.25,93.404,60.898,124.918,112.73l15.134,24.891c34.494,56.733,72.108,116.183,113.414,166.604
		c0.053,0.064,0.106,0.129,0.161,0.192l38.711,44.953c1.726,2.205,0.465,5.503-0.162,6.829c-1.934,4.083-5.818,7.045-9.237,7.045
		c-2.066,0-4.016-0.907-5.35-2.485l-24.761-29.326c-49.621-58.768-94.653-122.13-133.84-188.325l-4.071-6.88
		c-33.526-56.631-67.464-79.592-118.837-114.349l-4.485-3.035c-1.688-1.143-3.679-1.754-5.717-1.754H35.908V99.339H187.136z"/>
</g>
</svg>